<svg width="90" height="153" viewBox="0 0 90 153" fill="none" xmlns="http://www.w3.org/2000/svg">
<path d="M20.8098 151.399C20.8098 149.189 22.6015 147.397 24.8117 147.397H37.6178V151.399H20.8098Z" fill="#FBBA38"/>
<rect width="14.8851" height="40.6151" rx="7.44257" transform="matrix(0.966506 -0.256645 0.261009 0.965336 17.6083 113.6)" fill="#FBBA38"/>
<path d="M68.032 151.399C68.032 149.189 66.2403 147.397 64.0301 147.397H51.224V151.399H68.032Z" fill="#FBBA38"/>
<rect width="14.8851" height="40.6151" rx="7.44257" transform="matrix(-0.966506 -0.256645 -0.261009 0.965336 71.4093 113.6)" fill="#FBBA38"/>
<path d="M34.8006 82.6964C35.5927 78.0008 39.659 74.563 44.421 74.563C49.183 74.563 53.2492 78.0008 54.0413 82.6964L62.1029 130.485C63.9484 141.425 55.516 151.399 44.421 151.399C33.3259 151.399 24.8935 141.425 26.7391 130.485L34.8006 82.6964Z" fill="#FDCE72"/>
<path d="M34.8006 82.6964C35.5927 78.0008 39.659 74.563 44.421 74.563C49.183 74.563 53.2492 78.0008 54.0413 82.6964L62.1029 130.485C63.9484 141.425 55.516 151.399 44.421 151.399C33.3259 151.399 24.8935 141.425 26.7391 130.485L34.8006 82.6964Z" fill="url(#paint0_linear_54_15139)"/>
<path d="M37.8464 144.996H30.9861C29.0916 144.996 26.4125 147.863 26.4125 151.399H42.42C42.42 147.863 39.7409 144.996 37.8464 144.996Z" fill="white"/>
<path d="M31.2147 151.399C31.2147 149.532 31.2147 146.419 32.8155 145.797" stroke="black" stroke-width="0.800378"/>
<path d="M38.4181 151.399C38.4181 149.532 38.4181 146.419 36.8173 145.797" stroke="black" stroke-width="0.800378"/>
<path d="M57.8558 144.996H50.9955C49.101 144.996 46.4219 147.863 46.4219 151.399H62.4294C62.4294 147.863 59.7503 144.996 57.8558 144.996Z" fill="white"/>
<path d="M51.2242 151.399C51.2242 149.532 51.2242 146.419 52.0246 145.797" stroke="black" stroke-width="0.800378"/>
<path d="M57.6272 151.399C57.6272 149.532 57.6272 146.419 56.0264 145.797" stroke="black" stroke-width="0.800378"/>
<path d="M25.3989 64.5016C21.3773 51.7576 30.8928 38.7769 44.2562 38.7769C57.6197 38.7769 67.1351 51.7576 63.1135 64.5016L54.4323 92.0116C53.031 96.452 48.9124 99.4711 44.2562 99.4711C39.6 99.4711 35.4814 96.452 34.0802 92.0116L25.3989 64.5016Z" fill="#FDCE72"/>
<circle cx="33.2975" cy="66.5951" r="2.52893" fill="black"/>
<circle cx="55.2148" cy="66.5951" r="2.52893" fill="black"/>
<ellipse cx="43.9091" cy="93.9917" rx="6.7438" ry="3.3719" fill="black"/>
<ellipse cx="28.7865" cy="44.1481" rx="6.3522" ry="6.21419" fill="#FBBA38"/>
<ellipse cx="11.0005" cy="66.5191" rx="8.89308" ry="8.69987" fill="#FBBA38"/>
<path d="M4.64832 60.305L23.7049 40.4196L34.9835 45.5207L24.6017 90.6198L4.64832 60.305Z" fill="#FBBA38"/>
<path d="M2.2628 87.6694L2.10742 66.5191L18.7008 70.8099L24.6016 87.2479L2.2628 87.6694Z" fill="#FBBA38"/>
<ellipse cx="13.6431" cy="87.6694" rx="11.3802" ry="10.9587" fill="#FBBA38"/>
<ellipse cx="6.3522" cy="6.21419" rx="6.3522" ry="6.21419" transform="matrix(-1 0 0 1 66.2332 37.9339)" fill="#FBBA38"/>
<ellipse cx="8.89308" cy="8.69987" rx="8.89308" ry="8.69987" transform="matrix(-1 0 0 1 86.5601 57.8192)" fill="#FBBA38"/>
<path d="M84.0193 60.305L64.9627 40.4196L53.6841 45.5207L64.0659 90.6198L84.0193 60.305Z" fill="#FBBA38"/>
<path d="M86.4047 87.6694L86.5601 66.5191L69.9667 70.8099L64.0658 87.2479L86.4047 87.6694Z" fill="#FBBA38"/>
<ellipse cx="11.3802" cy="10.9587" rx="11.3802" ry="10.9587" transform="matrix(-1 0 0 1 86.4045 76.7108)" fill="#FBBA38"/>
<path d="M69.0553 77.0145C69.9482 79.2969 68.8269 81.8691 66.5507 82.7596C64.2745 83.6501 61.7054 82.5218 60.8124 80.2394C59.9195 77.957 60.3132 72.8898 57.592 69.9834C60.2049 68.5641 68.1623 74.7321 69.0553 77.0145Z" fill="#7199E7"/>
<path d="M77.9213 90.1436C78.0984 92.2479 76.5408 94.097 74.4422 94.2737C72.3436 94.4504 70.4987 92.8877 70.3215 90.7834C70.1443 88.6791 71.7135 84.5906 70.1796 81.5221C72.6861 80.9912 77.7441 88.0392 77.9213 90.1436Z" fill="#7199E7"/>
<path d="M86.0567 109.21C86.0381 111.322 84.3158 113.018 82.2099 113C80.1039 112.981 78.4118 111.254 78.4304 109.143C78.449 107.031 80.3903 103.106 79.1473 99.9081C81.6922 99.6119 86.0753 107.098 86.0567 109.21Z" fill="#7199E7"/>
<path d="M19.612 78.279C18.719 80.5614 19.8404 83.1335 22.1166 84.0241C24.3928 84.9146 26.9619 83.7862 27.8548 81.5038C28.7478 79.2214 28.3541 74.1543 31.0753 71.2479C28.4624 69.8285 20.5049 75.9966 19.612 78.279Z" fill="#7199E7"/>
<path d="M10.7458 91.408C10.5687 93.5124 12.1263 95.3615 14.2249 95.5382C16.3235 95.7149 18.1684 94.1522 18.3456 92.0479C18.5228 89.9436 16.9536 85.8551 18.4876 82.7865C15.981 82.2557 10.923 89.3037 10.7458 91.408Z" fill="#7199E7"/>
<path d="M2.61039 110.474C2.62899 112.586 4.35129 114.283 6.45725 114.264C8.5632 114.246 10.2553 112.519 10.2367 110.407C10.2181 108.296 8.27682 104.37 9.51983 101.173C6.97491 100.876 2.5918 108.363 2.61039 110.474Z" fill="#7199E7"/>
<defs>
<linearGradient id="paint0_linear_54_15139" x1="44.421" y1="74.563" x2="44.421" y2="151.399" gradientUnits="userSpaceOnUse">
<stop offset="0.155178" stop-color="#9B6906" stop-opacity="0.5"/>
<stop offset="0.498034" stop-color="#9B6906" stop-opacity="0"/>
</linearGradient>
</defs>
</svg>
