<svg width="149" height="183" viewBox="0 0 149 183" fill="none" xmlns="http://www.w3.org/2000/svg">
<path d="M2.55479 65.3425C3.9369 48.7572 17.8014 36 34.4443 36H114.556C131.199 36 145.063 48.7572 146.445 65.3425L148.585 91.0173C151.5 125.998 123.894 156 88.792 156H60.208C25.1056 156 -2.49987 125.998 0.415228 91.0173L2.55479 65.3425Z" fill="#95B6F2"/>
<ellipse cx="62" cy="100.167" rx="3" ry="2.75" fill="black"/>
<ellipse cx="88" cy="100.167" rx="3" ry="2.75" fill="black"/>
<path d="M30.1194 142.506C35.7673 114.457 62.3931 104.481 75 103V174.111C67.7383 174.111 61.2165 172.136 58.8633 171.148C56.3419 174.605 43.5342 183 39.7007 183C35.5541 183 23.0596 177.568 30.1194 142.506Z" fill="white"/>
<path d="M119.931 142.506C114.276 114.457 87.6209 104.481 75 103V174.111C82.2698 174.111 88.7989 172.136 91.1547 171.148C93.6789 174.605 104.493 183 110.339 183C113.99 183 126.998 177.568 119.931 142.506Z" fill="white"/>
<path d="M75 103C62.3931 104.481 35.7673 114.457 30.1194 142.506" stroke="black"/>
<path d="M54 168C55.8333 170.167 62.8 174 74 174" stroke="black"/>
<path d="M94 168C92.1667 170.167 85.2 174 74 174" stroke="black"/>
<path d="M75 112V118.5" stroke="black"/>
<path d="M85 127.5C85 122.253 80.7467 118 75.5 118C70.2533 118 66 122.253 66 127.5" stroke="black"/>
<path d="M66.5 124C64.9 124 64.8334 120 65 118C65 120 67.5 120.833 68.5 121C68 121.833 66.5 123.6 66.5 124Z" stroke="black" stroke-linejoin="round"/>
<path d="M84.5 124C86.1 124 86.1667 120 86 118C86 120 83.5 120.833 82.5 121C83 121.833 84.5 123.6 84.5 124Z" stroke="black" stroke-linejoin="round"/>
<path d="M75 103C87.6069 104.481 114.233 114.457 119.881 142.506" stroke="black"/>
<circle cx="67.5" cy="103.5" r="2.5" fill="black"/>
<circle cx="82.5" cy="103.5" r="2.5" fill="black"/>
<path d="M82.6189 101H67.3808L65.4761 105L71.6666 111C71.984 111.333 73.0951 112 74.9999 112C76.9046 112 78.0158 111.333 78.3332 111C78.6507 110.667 84.5237 105 84.5237 105L82.6189 101Z" fill="black"/>
<path d="M18 32H36.9762C44.0621 32 47.6499 40.5317 42.6936 45.5957L23.7174 64.9844C18.703 70.1078 10 66.5575 10 59.3887V40C10 35.5817 13.5817 32 18 32Z" fill="#5380D9"/>
<path d="M130 32H111.024C103.938 32 100.35 40.5317 105.306 45.5957L124.283 64.9844C129.297 70.1078 138 66.5575 138 59.3887V40C138 35.5817 134.418 32 130 32Z" fill="#5380D9"/>
</svg>
