<svg width="150" height="77" viewBox="0 0 150 77" fill="none" xmlns="http://www.w3.org/2000/svg">
<path d="M40.0139 76.014C40.0139 74.9927 40.8419 74.1647 41.8632 74.1647H47.4112V76.014H40.0139V76.014Z" fill="#5380D9"/>
<rect x="38.5756" y="59.0171" width="6.57538" height="18.0823" rx="3.28769" transform="rotate(-15 38.5756 59.0171)" fill="#5380D9"/>
<path d="M77.2059 76.014C77.2059 74.9927 76.3779 74.1647 75.3565 74.1647H69.8086V76.014H77.2059V76.014Z" fill="#5380D9"/>
<rect width="6.57538" height="18.0823" rx="3.28769" transform="matrix(-0.965926 -0.258819 -0.258819 0.965926 78.5797 59.0171)" fill="#5380D9"/>
<rect x="41.8632" y="45.6029" width="32.8769" height="30.4111" rx="13.3562" fill="#95B6F2"/>
<rect x="41.8632" y="45.6029" width="32.8769" height="30.4111" rx="13.3562" fill="url(#paint0_linear_54_16204)"/>
<path d="M51.1099 73.5482H48.6441C47.9632 73.5482 47.0002 74.6522 47.0002 76.014H52.7537C52.7537 74.6522 51.7908 73.5482 51.1099 73.5482Z" fill="white"/>
<path d="M48.6441 76.014C48.6441 75.3976 48.6441 74.3702 49.0551 74.1647" stroke="black" stroke-width="0.205481"/>
<path d="M50.9044 76.014C50.9044 75.3976 50.9044 74.3702 50.4934 74.1647" stroke="black" stroke-width="0.205481"/>
<path d="M68.5757 73.5482H66.1099C65.429 73.5482 64.4661 74.6522 64.4661 76.014H70.2195C70.2195 74.6522 69.2566 73.5482 68.5757 73.5482Z" fill="white"/>
<path d="M66.3154 76.014C66.3154 75.3976 66.3154 74.3702 66.7264 74.1647" stroke="black" stroke-width="0.205481"/>
<path d="M68.5757 76.014C68.5757 75.3976 68.5757 74.3702 68.1647 74.1647" stroke="black" stroke-width="0.205481"/>
<path d="M1.58905 75.8665C1.58905 74.9587 2.32502 74.2227 3.23289 74.2227H8.98635V75.8665H1.58905V75.8665Z" fill="#95B6F2"/>
<rect x="0.150696" y="59.0172" width="6.57538" height="18.0823" rx="3.28769" transform="rotate(-15 0.150696 59.0172)" fill="#95B6F2"/>
<path d="M25.3602 75.8665C25.3602 74.9587 24.6243 74.2227 23.7164 74.2227H17.9629V75.8665H25.3602V75.8665Z" fill="#95B6F2"/>
<rect width="6.57538" height="18.0823" rx="3.28769" transform="matrix(-0.965926 -0.258819 -0.258819 0.965926 26.7986 59.0172)" fill="#95B6F2"/>
<path d="M8.27751 21.5377C8.39804 19.8152 9.8305 18.4795 11.5572 18.4795H15.4566C17.1833 18.4795 18.6158 19.8152 18.7363 21.5377L22.3019 72.4969C22.435 74.3983 20.9284 76.014 19.0223 76.014H7.99153C6.08544 76.014 4.57881 74.3983 4.71186 72.4969L8.27751 21.5377Z" fill="#95B6F2"/>
<path d="M8.27751 21.5377C8.39804 19.8152 9.8305 18.4795 11.5572 18.4795H15.4566C17.1833 18.4795 18.6158 19.8152 18.7363 21.5377L22.3019 72.4969C22.435 74.3983 20.9284 76.014 19.0223 76.014H7.99153C6.08544 76.014 4.57881 74.3983 4.71186 72.4969L8.27751 21.5377Z" fill="url(#paint1_linear_54_16204)"/>
<path d="M7.34247 53.3863C9.93513 52.0313 12.6693 43.5232 13.7124 39.4385V75.6031C11.6495 68.1621 7.48749 53.3014 7.34247 53.3863Z" fill="#ECF1FA"/>
<path d="M19.8768 53.3863C17.3678 52.0313 14.7218 43.5232 13.7124 39.4385V75.6031C15.7087 68.1621 19.7365 53.3014 19.8768 53.3863Z" fill="#ECF1FA"/>
<path d="M7.34252 73.5483H4.87675C4.19585 73.5483 3.23291 74.6522 3.23291 76.014H8.98636C8.98636 74.6522 8.02342 73.5483 7.34252 73.5483Z" fill="white"/>
<path d="M4.87671 76.014C4.87671 75.3976 4.87671 74.3702 5.28767 74.1647" stroke="black" stroke-width="0.205481"/>
<path d="M7.13702 76.014C7.13702 75.3976 7.13702 74.3702 6.72606 74.1647" stroke="black" stroke-width="0.205481"/>
<path d="M21.7261 73.5483H19.2604C18.5795 73.5483 17.6165 74.6522 17.6165 76.014H23.37C23.37 74.6522 22.407 73.5483 21.7261 73.5483Z" fill="white"/>
<path d="M19.4658 76.014C19.4658 75.3976 19.4658 74.3702 19.8768 74.1647" stroke="black" stroke-width="0.205481"/>
<path d="M21.7261 76.014C21.7261 75.3976 21.7261 74.3702 21.3152 74.1647" stroke="black" stroke-width="0.205481"/>
<path d="M89.7402 76.014C89.7402 74.7657 90.7521 73.7538 92.0005 73.7538H98.7813V76.014H89.7402V76.014Z" fill="#95B6F2"/>
<rect width="7.87761" height="19.9933" rx="3.9388" transform="matrix(0.971448 -0.237252 0.282043 0.959402 88.0964 57.1295)" fill="#5380D9"/>
<path d="M116.864 76.014C116.864 74.7657 115.852 73.7538 114.603 73.7538H107.823V76.014H116.864V76.014Z" fill="#95B6F2"/>
<rect width="7.91588" height="20.0904" rx="3.95794" transform="matrix(-0.971448 -0.237252 -0.282043 0.959402 118.507 57.1386)" fill="#5380D9"/>
<path d="M97.8758 34.0987C98.2163 31.1689 100.698 28.959 103.647 28.959V28.959C106.612 28.959 109.101 31.1904 109.423 34.137L113.388 70.3402C113.708 73.2589 111.422 75.8086 108.486 75.8086H98.5658C95.6166 75.8086 93.3268 73.2372 93.6672 70.3077L97.8758 34.0987Z" fill="#95B6F2"/>
<path d="M97.8758 34.0987C98.2163 31.1689 100.698 28.959 103.647 28.959V28.959C106.612 28.959 109.101 31.1904 109.423 34.137L113.388 70.3402C113.708 73.2589 111.422 75.8086 108.486 75.8086H98.5658C95.6166 75.8086 93.3268 73.2372 93.6672 70.3077L97.8758 34.0987Z" fill="url(#paint2_linear_54_16204)"/>
<path d="M97.754 53.8221C100.144 52.652 102.751 47.8977 103.713 44.37V75.8388C101.811 69.4125 97.8877 53.7488 97.754 53.8221Z" fill="#ECF1FA"/>
<path d="M109.261 53.5301C107.003 52.3446 104.621 47.9441 103.713 44.37V75.8085C105.51 69.2977 109.135 53.4559 109.261 53.5301Z" fill="#ECF1FA"/>
<path d="M98.7814 73.5483H96.3156C95.6347 73.5483 94.6718 74.6522 94.6718 76.014H100.425C100.425 74.6522 99.4623 73.5483 98.7814 73.5483Z" fill="white"/>
<path d="M96.3156 76.014C96.3156 75.3976 96.3156 74.3702 96.7265 74.1647" stroke="black" stroke-width="0.205481"/>
<path d="M98.5759 76.014C98.5759 75.3976 98.5759 74.3702 98.1649 74.1647" stroke="black" stroke-width="0.205481"/>
<path d="M110.288 73.5483H107.822C107.142 73.5483 106.179 74.6522 106.179 76.014H111.932C111.932 74.6522 110.969 73.5483 110.288 73.5483Z" fill="white"/>
<path d="M108.028 76.014C108.028 75.3976 108.028 74.3702 108.439 74.1647" stroke="black" stroke-width="0.205481"/>
<path d="M110.288 76.014C110.288 75.3976 110.288 74.3702 109.877 74.1647" stroke="black" stroke-width="0.205481"/>
<path d="M129.203 76.0141C129.203 75.3332 129.755 74.7812 130.435 74.7812H134.39V76.0141H129.203V76.0141Z" fill="#95B6F2"/>
<rect width="4.67804" height="12.7553" rx="2.3176" transform="matrix(0.966558 -0.256449 0.261208 0.965283 128.165 64.063)" fill="#95B6F2"/>
<path d="M147.675 76.0141C147.675 75.3332 147.123 74.7812 146.443 74.7812H142.488V76.0141H147.675V76.0141Z" fill="#95B6F2"/>
<rect width="4.67754" height="12.7539" rx="2.31735" transform="matrix(-0.966558 -0.256449 -0.261208 0.965283 148.713 64.0629)" fill="#95B6F2"/>
<path d="M132.88 51.2136C133.185 48.3731 135.582 46.2194 138.439 46.2194V46.2194C141.296 46.2194 143.693 48.3732 143.998 51.2136L146.073 70.5565C146.385 73.4716 144.101 76.0141 141.169 76.0141H135.709C132.777 76.0141 130.493 73.4716 130.805 70.5565L132.88 51.2136Z" fill="#95B6F2"/>
<path d="M132.88 51.2136C133.185 48.3731 135.582 46.2194 138.439 46.2194V46.2194C141.296 46.2194 143.693 48.3732 143.998 51.2136L146.073 70.5565C146.385 73.4716 144.101 76.0141 141.169 76.0141H135.709C132.777 76.0141 130.493 73.4716 130.805 70.5565L132.88 51.2136Z" fill="url(#paint3_linear_54_16204)"/>
<path d="M133.097 61.2066C135.316 60.4196 137.737 57.2222 138.63 54.8496L138.645 76.0141C136.879 71.692 133.221 61.1573 133.097 61.2066Z" fill="#ECF1FA"/>
<path d="M143.782 61.0103C141.685 60.2129 139.473 57.2534 138.63 54.8496L138.645 76.0141C140.313 71.6352 143.664 60.9603 143.782 61.0103Z" fill="#ECF1FA"/>
<path d="M135.397 73.5483H132.907C132.22 73.5483 131.247 74.6522 131.247 76.014H137.058C137.058 74.6522 136.085 73.5483 135.397 73.5483Z" fill="white"/>
<path d="M132.907 76.0141C132.907 75.3976 132.907 74.3702 133.322 74.1647" stroke="black" stroke-width="0.205481"/>
<path d="M135.19 76.0141C135.19 75.3976 135.19 74.3702 134.775 74.1647" stroke="black" stroke-width="0.205481"/>
<path d="M144.028 73.5483H141.538C140.85 73.5483 139.877 74.6522 139.877 76.014H145.688C145.688 74.6522 144.715 73.5483 144.028 73.5483Z" fill="white"/>
<path d="M141.745 76.0141C141.745 75.3976 141.745 74.3702 142.16 74.1647" stroke="black" stroke-width="0.205481"/>
<path d="M144.028 76.0141C144.028 75.3976 144.028 74.3702 143.613 74.1647" stroke="black" stroke-width="0.205481"/>
<path d="M43.2101 35.6048C43.4941 32.1968 46.343 29.5754 49.7628 29.5754H66.2241C69.6439 29.5754 72.4928 32.1968 72.7768 35.6048L73.2164 40.8804C73.8154 48.0684 68.1431 54.2331 60.9302 54.2331H55.0567C47.8439 54.2331 42.1715 48.0684 42.7705 40.8804L43.2101 35.6048Z" fill="#95B6F2"/>
<ellipse cx="55.425" cy="42.7604" rx="0.616441" ry="0.565071" fill="black"/>
<ellipse cx="60.7674" cy="42.7604" rx="0.616441" ry="0.565071" fill="black"/>
<path d="M48.4768 51.1315C49.6374 45.3679 55.1084 43.3182 57.6989 43.0138V57.6257C56.2068 57.6257 54.8667 57.2199 54.3831 57.0169C53.865 57.7272 51.2333 59.4522 50.4456 59.4522C49.5935 59.4522 47.0262 58.336 48.4768 51.1315Z" fill="white"/>
<path d="M66.9313 51.1315C65.7695 45.3679 60.2923 43.3182 57.6989 43.0138V57.6257C59.1927 57.6257 60.5343 57.2199 61.0184 57.0169C61.5371 57.7272 63.7591 59.4522 64.9603 59.4522C65.7106 59.4522 68.3836 58.336 66.9313 51.1315Z" fill="white"/>
<path d="M57.6989 43.0138C55.1084 43.3182 49.6373 45.3679 48.4768 51.1315" stroke="black" stroke-width="0.205481"/>
<path d="M53.3838 56.37C53.7605 56.8152 55.192 57.6029 57.4934 57.6029" stroke="black" stroke-width="0.205481"/>
<path d="M61.603 56.37C61.2263 56.8152 59.7948 57.6029 57.4934 57.6029" stroke="black" stroke-width="0.205481"/>
<path d="M57.6989 44.8631V46.1988" stroke="black" stroke-width="0.205481"/>
<path d="M59.7537 48.0481C59.7537 46.97 58.8798 46.096 57.8017 46.096C56.7236 46.096 55.8496 46.97 55.8496 48.0481" stroke="black" stroke-width="0.205481"/>
<path d="M55.9523 47.3289C55.6235 47.3289 55.6098 46.507 55.6441 46.096C55.6441 46.507 56.1578 46.6782 56.3633 46.7124C56.2605 46.8837 55.9523 47.2467 55.9523 47.3289Z" stroke="black" stroke-width="0.205481" stroke-linejoin="round"/>
<path d="M59.651 47.3289C59.9797 47.3289 59.9934 46.507 59.9592 46.096C59.9592 46.507 59.4455 46.6782 59.24 46.7124C59.3428 46.8837 59.651 47.2467 59.651 47.3289Z" stroke="black" stroke-width="0.205481" stroke-linejoin="round"/>
<path d="M57.6989 43.0138C60.2894 43.3182 65.7605 45.3679 66.921 51.1315" stroke="black" stroke-width="0.205481"/>
<circle cx="56.1578" cy="43.1165" r="0.513701" fill="#5380D9"/>
<circle cx="59.24" cy="43.1165" r="0.513701" fill="#5380D9"/>
<path d="M59.2645 42.6028H56.1333L55.7419 43.4248L57.014 44.6576C57.0792 44.7261 57.3075 44.8631 57.6989 44.8631C58.0903 44.8631 58.3186 44.7261 58.3838 44.6576C58.4491 44.5892 59.6559 43.4248 59.6559 43.4248L59.2645 42.6028Z" fill="#5380D9"/>
<path d="M46.3838 28.7535H50.2831C51.7391 28.7535 52.4763 30.5066 51.4579 31.5472L47.5586 35.5312C46.5283 36.5839 44.74 35.8544 44.74 34.3814V30.3974C44.74 29.4895 45.476 28.7535 46.3838 28.7535Z" fill="#7199E7"/>
<path d="M69.3977 28.7535H65.4984C64.0424 28.7535 63.3052 30.5066 64.3236 31.5472L68.2229 35.5312C69.2532 36.5839 71.0415 35.8544 71.0415 34.3814V30.3974C71.0415 29.4895 70.3055 28.7535 69.3977 28.7535Z" fill="#7199E7"/>
<path d="M7.37892 13.9589C6.72534 10.8906 9.06508 8 12.2022 8H14.8116C17.9488 8 20.2885 10.8906 19.6349 13.9589L16.0988 30.5597C15.8382 31.7831 14.7577 32.6577 13.5069 32.6577V32.6577C12.2561 32.6577 11.1756 31.7831 10.915 30.5597L7.37892 13.9589Z" fill="#95B6F2"/>
<circle cx="10.8357" cy="21.5617" r="0.616441" fill="black"/>
<circle cx="16.1781" cy="21.5617" r="0.616441" fill="black"/>
<ellipse cx="13.1096" cy="30.685" rx="1.64384" ry="0.821922" fill="black"/>
<path d="M11.3923 1.21915C12.317 1.21915 12.2143 8.19669 12.2143 8.19669C9.85417 8.7909 7.97484 13.213 7.53324 13.6507C5.40914 12.7 9.44027 1.21915 11.3923 1.21915Z" fill="#5380D9"/>
<path d="M15.5651 1.21915C14.6405 1.21915 14.7432 8.19669 14.7432 8.19669C17.1033 8.7909 18.9826 13.213 19.4242 13.6507C21.5483 12.7 17.5172 1.21915 15.5651 1.21915Z" fill="#5380D9"/>
<path d="M96.3533 21.4654C95.6849 17.0843 99.0757 13.137 103.507 13.137V13.137C107.939 13.137 111.33 17.0843 110.661 21.4653L109.624 28.2645C109.257 30.673 107.185 32.4522 104.749 32.4522H102.266C99.8294 32.4522 97.7581 30.673 97.3907 28.2644L96.3533 21.4654Z" fill="#95B6F2"/>
<ellipse cx="98.7092" cy="14.8572" rx="1.54839" ry="1.51475" fill="#7199E7"/>
<ellipse cx="94.3737" cy="20.3103" rx="2.16774" ry="2.12065" fill="#7199E7"/>
<path d="M92.8253 18.7956L97.4705 13.9484L100.22 15.1918L97.6891 26.185L92.8253 18.7956Z" fill="#7199E7"/>
<path d="M92.2439 25.4659L92.206 20.3103L96.2507 21.3562L97.6891 25.3631L92.2439 25.4659Z" fill="#7199E7"/>
<ellipse cx="95.0179" cy="25.4658" rx="2.77399" ry="2.67125" fill="#7199E7"/>
<ellipse cx="1.54839" cy="1.51475" rx="1.54839" ry="1.51475" transform="matrix(-1 0 0 1 109.892 13.3425)" fill="#7199E7"/>
<ellipse cx="2.16774" cy="2.12065" rx="2.16774" ry="2.12065" transform="matrix(-1 0 0 1 114.847 18.1897)" fill="#7199E7"/>
<path d="M114.227 18.7956L109.582 13.9484L106.833 15.1918L109.364 26.185L114.227 18.7956Z" fill="#7199E7"/>
<path d="M114.809 25.4659L114.847 20.3103L110.802 21.3562L109.364 25.3631L114.809 25.4659Z" fill="#7199E7"/>
<ellipse cx="2.77399" cy="2.67125" rx="2.77399" ry="2.67125" transform="matrix(-1 0 0 1 114.809 22.7946)" fill="#7199E7"/>
<circle cx="100.733" cy="22.7946" r="0.616441" fill="black"/>
<circle cx="106.076" cy="22.7946" r="0.616441" fill="black"/>
<path d="M103.007 28.6302V30.274" stroke="black" stroke-width="0.205481"/>
<path d="M100.747 29.4521C100.747 30.4795 102.318 30.9198 103.007 30.274" stroke="black" stroke-width="0.205481"/>
<path d="M105.268 29.4521C105.268 30.4795 103.75 30.9198 103.007 30.274" stroke="black" stroke-width="0.205481"/>
<ellipse cx="103.007" cy="28.4247" rx="1.64384" ry="1.0274" fill="black"/>
<circle cx="138.234" cy="41.1645" r="7.89045" fill="#95B6F2"/>
<path d="M138.234 33.2741V54.6441C134.676 54.6441 131.809 53.2976 130.014 51.932C129.622 51.6337 129.282 51.3344 128.996 51.0481C128.743 50.7951 128.534 50.5522 128.371 50.329L128.782 49.6611L130.425 39.8793L138.234 33.2741Z" fill="#95B6F2"/>
<path d="M138.234 54.6441C143.255 54.6441 146.901 52.0128 148.097 50.3803L147.686 49.7125L146.042 39.8793L138.234 33.2741V54.6441Z" fill="#95B6F2"/>
<path d="M127.96 49.3016C128.288 49.055 129.158 47.7947 129.295 47.2468C129.398 48.0687 129.46 49.5481 129.295 49.7125C129.131 49.8769 128.199 49.6098 127.96 49.3016Z" fill="#95B6F2"/>
<path d="M148.301 48.0687C147.972 47.8221 147.102 46.5618 146.965 46.0139C146.863 46.8358 146.801 48.3153 146.965 48.4797C147.13 48.644 148.061 48.3769 148.301 48.0687Z" fill="#95B6F2"/>
<path d="M148.506 49.3016C148.178 49.055 147.308 47.7947 147.171 47.2468C147.068 48.0687 147.006 49.5481 147.171 49.7125C147.335 49.8769 148.267 49.6098 148.506 49.3016Z" fill="#95B6F2"/>
<path d="M128.165 48.0687C128.494 47.8221 129.364 46.5618 129.501 46.0139C129.603 46.8358 129.665 48.3153 129.501 48.4797C129.336 48.644 128.405 48.3769 128.165 48.0687Z" fill="#95B6F2"/>
<path d="M130.836 47.0413C130.528 47.7605 129.603 48.4797 128.781 48.4797" stroke="#5380D9" stroke-width="0.205481"/>
<path d="M130.734 45.5002C130.323 46.1166 130.014 46.3221 129.398 46.5276" stroke="#5380D9" stroke-width="0.205481"/>
<path d="M130.836 48.6851C130.46 49.3016 129.603 49.6098 128.781 49.6098" stroke="#5380D9" stroke-width="0.205481"/>
<path d="M145.425 47.0413C145.734 47.7605 146.658 48.4797 147.48 48.4797" stroke="#5380D9" stroke-width="0.205481"/>
<path d="M145.528 45.5002C145.939 46.1166 146.247 46.3221 146.864 46.5276" stroke="#5380D9" stroke-width="0.205481"/>
<path d="M145.425 48.6851C145.802 49.3016 146.658 49.6098 147.48 49.6098" stroke="#5380D9" stroke-width="0.205481"/>
<ellipse cx="135.768" cy="43.5823" rx="0.616441" ry="0.565071" fill="black"/>
<ellipse cx="141.11" cy="43.5823" rx="0.616441" ry="0.565071" fill="black"/>
<path d="M138.042 51.1071C137.38 51.7395 135.987 51.4385 135.576 50.6039L134.857 48.5618" stroke="black" stroke-width="0.205481"/>
<path d="M137.836 51.1071C138.498 51.7395 139.891 51.4385 140.302 50.6039L141.021 48.5618" stroke="black" stroke-width="0.205481"/>
<path d="M136.398 50.2056C136.398 49.8652 136.674 49.5892 137.014 49.5892H139.069C139.41 49.5892 139.686 49.8652 139.686 50.2056V50.4111H136.398V50.2056Z" fill="black"/>
<ellipse cx="138.042" cy="50.4111" rx="1.64384" ry="0.821922" fill="black"/>
<path d="M134.475 28.3426C135.4 28.3426 135.297 35.3201 135.297 35.3201C132.937 35.9143 131.058 40.3364 130.616 40.7741C128.492 39.8234 132.523 28.3426 134.475 28.3426Z" fill="#7199E7"/>
<path d="M141.936 28.3426C141.011 28.3426 141.114 35.3201 141.114 35.3201C143.474 35.9143 145.353 40.3364 145.795 40.7741C147.919 39.8234 143.888 28.3426 141.936 28.3426Z" fill="#7199E7"/>
<defs>
<linearGradient id="paint0_linear_54_16204" x1="58.3017" y1="46.5604" x2="58.3017" y2="76.014" gradientUnits="userSpaceOnUse">
<stop stop-color="#5D80C2" stop-opacity="0.8"/>
<stop offset="0.525" stop-color="#5D80C2" stop-opacity="0"/>
</linearGradient>
<linearGradient id="paint1_linear_54_16204" x1="13.5069" y1="18.4795" x2="13.5069" y2="76.014" gradientUnits="userSpaceOnUse">
<stop stop-color="#5D80C2" stop-opacity="0.8"/>
<stop offset="0.545" stop-color="#5D80C2" stop-opacity="0"/>
</linearGradient>
<linearGradient id="paint2_linear_54_16204" x1="103.507" y1="28.959" x2="103.507" y2="75.8086" gradientUnits="userSpaceOnUse">
<stop stop-color="#5D80C2" stop-opacity="0.8"/>
<stop offset="0.455" stop-color="#5D80C2" stop-opacity="0"/>
</linearGradient>
<linearGradient id="paint3_linear_54_16204" x1="138.439" y1="46.2194" x2="138.439" y2="76.0141" gradientUnits="userSpaceOnUse">
<stop stop-color="#5D80C2" stop-opacity="0.8"/>
<stop offset="0.535" stop-color="#5D80C2" stop-opacity="0"/>
</linearGradient>
</defs>
</svg>
