<svg width="110" height="134" viewBox="0 0 110 134" fill="none" xmlns="http://www.w3.org/2000/svg">
<path d="M14.9619 3.09198C17.5234 -9.26631 43.9535 19.4115 43.9535 19.4115C33.7077 21.9683 25.549 40.9966 23.6319 42.88C14.4106 38.789 12.4005 15.4503 14.9619 3.09198Z" fill="#7199E7"/>
<path d="M92.2407 3.09198C89.6792 -9.26631 63.2491 19.4115 63.2491 19.4115C73.4949 21.9683 81.6536 40.9966 83.5707 42.88C92.792 38.789 94.8022 15.4503 92.2407 3.09198Z" fill="#7199E7"/>
<path fill-rule="evenodd" clip-rule="evenodd" d="M30.016 7.76386C41.1648 2.71441 51.8134 4.2573 55.744 5.65992V77.8145C54.9864 78.2822 53.9511 78.2023 53.2883 77.575C50.9137 75.3277 47.7815 73.968 44.5416 73.968C37.6079 73.968 32.16 79.9058 32.16 87.463C32.16 96.7301 39.8015 104.282 51.3792 115.725L51.4077 115.753L53.5437 117.873C54.1492 118.473 55.1137 118.494 55.744 117.933V134C51.456 132.317 45.3814 125.584 42.88 122.428C42.0224 124.111 43.952 128.039 45.024 129.792C39.8784 127.267 35.0187 121.026 33.232 118.22C32.3744 119.062 33.5894 122.779 34.304 124.532C28.3008 122.849 19.6533 109.103 16.08 102.441C14.3648 102.441 15.3653 108.051 16.08 110.857C11.792 107.49 9.29067 95.4277 8.57601 89.8172C6.0032 89.8172 5.36 94.7263 5.36 97.1809C1.9296 92.1315 3.216 77.5442 4.288 70.8817C3.4304 69.1986 1.072 72.2843 0 74.0376C0 63.9387 5.00267 50.8943 7.50401 45.6345C5.7888 45.6345 3.216 48.4397 2.144 49.8424C2.144 42.2682 12.864 29.1537 18.224 23.5432L12.864 25.6471C15.4368 18.9145 28.2294 13.0235 34.304 10.9195L30.016 7.76386ZM55.7471 117.931V134C59.8702 132.317 65.7112 125.584 68.1164 122.428C68.941 124.111 67.0856 128.039 66.0548 129.792C71.0025 127.267 75.6753 121.026 77.3933 118.22C78.2179 119.062 77.0497 122.779 76.3625 124.532C82.1348 122.849 90.4497 109.103 93.8856 102.441C95.5349 102.441 94.5728 108.051 93.8856 110.857C98.0087 107.49 100.414 95.4278 101.101 89.8173C103.575 89.8173 104.193 94.7265 104.193 97.1811C107.492 92.1316 106.255 77.5443 105.224 70.8818C106.049 69.1987 108.316 72.2845 109.347 74.0378C109.347 63.9389 104.537 50.8944 102.132 45.6346C103.781 45.6346 106.255 48.4399 107.286 49.8425C107.286 42.2683 96.9779 29.1538 91.8241 23.5433L96.9779 25.6472C94.5041 18.9146 82.2036 13.0236 76.3625 10.9197L80.4856 7.76398C69.7656 2.71453 59.5266 4.25742 55.7471 5.66004V77.8126C55.8564 77.7448 55.96 77.6656 56.0557 77.575C58.4303 75.3277 61.5625 73.968 64.8024 73.968C71.7361 73.968 77.184 79.9058 77.184 87.463C77.184 96.714 69.569 104.256 58.0251 115.69L57.9362 115.778L55.8045 117.877C55.7857 117.895 55.7666 117.913 55.7471 117.931Z" fill="#5380D9"/>
<circle cx="54.6731" cy="57.8875" r="10.72" fill="#95B6F2"/>
<path d="M55.4817 56.9519C55.0542 57.4455 54.2885 57.4455 53.861 56.9519L47.8521 50.0134C47.2508 49.3191 47.744 48.2396 48.6624 48.2396L60.6802 48.2396C61.5987 48.2396 62.0919 49.3191 61.4906 50.0134L55.4817 56.9519Z" fill="black"/>
<path d="M54.6708 55.7438V58.6024C54.6708 59.3171 52.6697 62.1758 50.3828 62.1758" stroke="black" stroke-width="1.072"/>
<path d="M54.672 55.7438V58.6024C54.672 59.3171 56.673 62.1758 58.96 62.1758" stroke="black" stroke-width="1.072"/>
<circle cx="40.737" cy="40.7355" r="3.216" fill="black"/>
<circle cx="68.61" cy="40.7355" r="3.216" fill="black"/>
</svg>
