<svg width="34" height="58" viewBox="0 0 34 58" fill="none" xmlns="http://www.w3.org/2000/svg">
<path d="M4.65253 16.9613C5.44901 13.1186 13.6673 22.0358 13.6673 22.0358C10.4814 22.8309 7.94453 28.7476 7.34841 29.3332C4.48109 28.0612 3.85605 20.8041 4.65253 16.9613Z" fill="#7199E7"/>
<path d="M28.6819 16.9613C27.8855 13.1186 19.6672 22.0358 19.6672 22.0358C22.853 22.8309 25.3899 28.7476 25.9861 29.3332C28.8534 28.0612 29.4784 20.8041 28.6819 16.9613Z" fill="#7199E7"/>
<path d="M9.33333 18.4143C12.8 16.8442 16.1111 17.3239 17.3333 17.7601V57.6667C16 57.1434 14.1111 55.0499 13.3333 54.0686C13.0667 54.592 13.6667 55.8131 14 56.3583C12.4 55.5733 10.8889 53.6325 10.3333 52.7602C10.0667 53.0219 10.4444 54.1776 10.6667 54.7228C8.8 54.1994 6.11111 49.9253 5 47.8536C4.46667 47.8536 4.77778 49.5982 5 50.4704C3.66667 49.4237 2.88889 45.6729 2.66667 43.9284C1.86667 43.9284 1.66667 45.4548 1.66667 46.2181C0.6 44.648 1 40.1121 1.33333 38.0405C1.06667 37.5171 0.333333 38.4766 0 39.0218C0 35.8816 1.55556 31.8255 2.33333 30.19C1.8 30.19 1 31.0623 0.666667 31.4984C0.666667 29.1432 4 25.0653 5.66667 23.3208L4 23.975C4.8 21.8815 8.77778 20.0497 10.6667 19.3955L9.33333 18.4143Z" fill="#5380D9"/>
<path d="M25.0261 18.4143C21.6928 16.8442 18.509 17.3239 17.3338 17.7601V57.6667C18.6159 57.1433 20.4321 55.0499 21.18 54.0686C21.4364 54.5919 20.8595 55.8131 20.539 56.3583C22.0774 55.5732 23.5304 53.6324 24.0646 52.7601C24.321 53.0218 23.9578 54.1776 23.7441 54.7228C25.5389 54.1994 28.1244 49.9252 29.1928 47.8536C29.7056 47.8536 29.4065 49.5981 29.1928 50.4704C30.4748 49.4237 31.2227 45.6729 31.4364 43.9283C32.2056 43.9283 32.3979 45.4548 32.3979 46.2181C33.4236 44.648 33.0389 40.1121 32.7184 38.0404C32.9748 37.5171 33.68 38.4766 34.0005 39.0218C34.0005 35.8816 32.5048 31.8255 31.7569 30.1899C32.2697 30.1899 33.0389 31.0622 33.3595 31.4984C33.3595 29.1432 30.1543 25.0653 28.5518 23.3208L30.1543 23.975C29.3851 21.8815 25.5603 20.0497 23.7441 19.3955L25.0261 18.4143Z" fill="#5380D9"/>
<circle cx="17.0003" cy="33.9999" r="3.33333" fill="#95B6F2"/>
<path d="M17.2525 33.709C17.1195 33.8624 16.8814 33.8624 16.7485 33.709L14.8801 31.5515C14.6931 31.3356 14.8465 30.9999 15.132 30.9999L18.8689 30.9999C19.1545 30.9999 19.3079 31.3356 19.1209 31.5515L17.2525 33.709Z" fill="black"/>
<path d="M17.0003 33.3333V34.2221C17.0003 34.4444 16.3781 35.3333 15.667 35.3333" stroke="black" stroke-width="0.333333"/>
<path d="M17.0007 33.3333V34.2221C17.0007 34.4444 17.6229 35.3333 18.334 35.3333" stroke="black" stroke-width="0.333333"/>
<circle cx="12.6665" cy="28.6667" r="1" fill="black"/>
<circle cx="21.3335" cy="28.6667" r="1" fill="black"/>
<path d="M17.3522 52.6532C17.157 52.8454 16.8436 52.8448 16.6492 52.6519L15.985 51.9929C12.38 48.43 10 46.0801 10 43.1962C10 40.8463 11.694 39 13.85 39C14.8574 39 15.8314 39.4228 16.5697 40.1216C16.8059 40.3451 17.1941 40.3451 17.4303 40.1216C18.1686 39.4228 19.1426 39 20.15 39C22.306 39 24 40.8463 24 43.1962C24 46.0801 21.62 48.43 18.015 52.0005L17.3522 52.6532Z" fill="white"/>
</svg>
