<svg width="126" height="137" viewBox="0 0 126 137" fill="none" xmlns="http://www.w3.org/2000/svg">
<mask id="mask0_82_4848" style="mask-type:alpha" maskUnits="userSpaceOnUse" x="0" y="0" width="126" height="137">
<rect width="126" height="137" fill="#D9D9D9"/>
</mask>
<g mask="url(#mask0_82_4848)">
<rect x="-221" width="380" height="137" fill="#FDCE72"/>
<mask id="mask1_82_4848" style="mask-type:alpha" maskUnits="userSpaceOnUse" x="-246" y="0" width="380" height="137">
<rect x="-246" width="380" height="137" fill="#FDCE72"/>
</mask>
<g mask="url(#mask1_82_4848)">
<rect width="16.7416" height="40.134" rx="8.37079" transform="matrix(0.883959 -0.467565 0.536362 0.843988 50.3538 129.194)" fill="#FBBA38"/>
<rect width="16.7416" height="40.134" rx="8.37079" transform="matrix(-0.999313 0.0370566 -0.0425092 0.999096 123.276 109.655)" fill="#FBBA38"/>
<path d="M62.6725 98.0767C61.8453 89.3669 67.4268 81.3325 75.8777 79.0681C84.3285 76.8037 93.1794 80.971 96.818 88.9274L112.156 122.468C118.37 136.055 110.878 151.967 96.4469 155.834C82.0158 159.7 67.5716 149.666 66.1592 134.793L62.6725 98.0767Z" fill="#FEF1D7"/>
<path d="M68.9701 122.058C75.7368 118.077 80.7987 108.28 82.1056 101.397L96.7238 155.759C87.9333 146.213 69.3449 121.821 68.9701 122.058Z" fill="white"/>
<path d="M103.141 112.045C95.6871 111.846 86.5383 106.829 82.1058 101.397L96.724 155.76C99.2032 143.037 102.72 112.02 103.141 112.045Z" fill="white"/>
<path d="M40.4542 34.1009C38.7398 27.7028 41.4874 25.7588 44.8482 25.7332C48.0441 20.0645 53.0726 24.7749 53.6106 28.864C56.9172 29.3494 58.993 37.0464 56.1815 38.4585C59.1859 41.7679 58.8619 45.1691 58.3244 46.456C60.3409 50.0302 59.4843 52.4312 58.8039 53.185C60.8204 56.7591 60.2495 60.2265 59.7119 61.5134C63.4021 67.382 62.1406 70.5773 61.0486 71.4414C61.775 78.1041 58.3779 79.5858 56.5885 79.4938C54.0084 85.6711 50.5739 83.3912 49.1792 81.4791C43.0048 83.1335 41.2903 76.7356 40.8618 75.136C34.5507 71.3412 34.8372 64.1784 35.7693 61.0714C32.0792 55.2028 35.2388 49.2131 37.2799 46.9519C33.2469 39.8036 37.7157 35.4061 40.4542 34.1009Z" fill="#FBBA38"/>
<path d="M82.4729 22.8419C80.7586 16.4438 77.4071 16.134 74.4837 17.7923C68.8817 14.481 66.8821 21.0745 68.4607 24.8848C65.8398 26.9585 67.8906 34.6622 71.0315 34.4793C70.0843 38.8476 72.0655 41.6311 73.1744 42.4769C73.2151 46.5804 75.1576 48.2315 76.1237 48.544C76.1644 52.6476 78.3925 55.365 79.5015 56.2107C79.24 63.1382 81.9302 65.2746 83.3079 65.4769C86.0102 71.6102 89.693 71.1948 91.1967 70.2205C96.5198 74.2801 98.3541 70.5884 98.6059 68.2352C104.78 66.5807 103.066 60.1827 102.638 58.5832C106.206 52.1412 102.376 46.0813 100.015 43.8566C100.277 36.9292 94.5457 33.3218 91.6474 32.384C91.566 24.177 85.4972 22.603 82.4729 22.8419Z" fill="#FBBA38"/>
<path d="M50.5644 53.7266C45.8238 44.1236 51.0496 32.5837 61.3941 29.8119C71.7386 27.0401 82.0342 34.421 82.7303 45.1078L85.2872 84.3648C85.5704 88.7127 82.7438 92.6555 78.5352 93.7832C74.3265 94.9109 69.9072 92.9096 67.9785 89.0026L50.5644 53.7266Z" fill="#FEF1D7"/>
<path d="M50.4959 19.0612C51.5253 14.3536 55.4502 14.0406 57.284 14.4725L65.9398 46.7762C65.9398 46.7762 60.0305 47.8318 55.8198 50.5892C52.4498 52.796 51.2398 56.8818 47.8808 56.1447C45.2431 55.5658 44.0323 52.6463 44.0323 52.6463C39.9081 52.6434 39.6195 48.289 39.9908 46.1122C37.3115 42.9523 39.1452 40.1066 40.3969 39.0787C38.434 35.1729 40.4468 32.1408 41.6986 31.1129C40.7292 27.4949 44.049 25.6359 45.8301 25.1586C45.3001 19.761 48.7198 18.8447 50.4959 19.0612Z" fill="#FEF1D7"/>
<path d="M65.4572 15.0523C62.212 11.4901 58.6563 13.1814 57.2842 14.4724L65.9399 46.7761C65.9399 46.7761 71.5854 44.7357 76.6106 45.0182C80.6325 45.2444 83.7233 48.1778 86.2637 45.8599C88.2586 44.0398 87.8474 40.906 87.8474 40.906C91.4176 38.8414 89.4903 34.9261 88.0804 33.2265C88.8208 29.1503 85.81 27.6027 84.212 27.3385C83.959 22.9745 80.6997 21.355 79.1018 21.0907C78.1323 17.4727 74.3278 17.5226 72.5467 17.9999C70.3068 13.0604 66.8871 13.9767 65.4572 15.0523Z" fill="#FEF1D7"/>
<circle cx="59.3549" cy="63.7835" r="2.48355" transform="rotate(-15 59.3549 63.7835)" fill="black"/>
<circle cx="80.1457" cy="58.2127" r="2.48355" transform="rotate(-15 80.1457 58.2127)" fill="black"/>
<ellipse cx="76.8826" cy="86.8534" rx="6.6228" ry="3.3114" transform="rotate(-15 76.8826 86.8534)" fill="black"/>
</g>
<path d="M16.8388 34.6252C13.6602 31.6162 13.4925 29.8431 13.9754 27.403C14.2927 25.6271 14.3044 24.0226 13.1135 22.9283C11.8442 21.7122 10.0727 21.9296 8.89266 23.1605C7.78641 24.3642 7.534 26.2251 8.9851 27.6842L5.56772 31.3233C2.02717 27.878 2.81219 23.5754 5.89264 20.2951C9.24985 16.72 13.4784 15.9404 16.6434 18.9126C18.7577 20.898 19.0676 23.2386 18.5035 25.8679C18.0023 28.1221 18.2336 29.5449 20.0155 31.2423L20.2974 31.5071L17.1207 34.8899L16.8388 34.6252ZM20.3989 38.6917C19.1959 37.6103 19.1494 35.734 20.2933 34.5415C21.3514 33.389 23.239 33.3048 24.4179 34.4119C25.6096 35.531 25.6441 37.4201 24.5732 38.5605C23.4421 39.7651 21.5665 39.8364 20.3989 38.6917Z" fill="white"/>
</g>
</svg>
