<svg width="16" height="18" viewBox="0 0 16 18" fill="none" xmlns="http://www.w3.org/2000/svg">
<path d="M7.04917 1.92705C7.34852 1.00574 8.65193 1.00574 8.95129 1.92705L10.0209 5.21885C10.1547 5.63087 10.5387 5.90983 10.9719 5.90983H14.4331C15.4018 5.90983 15.8046 7.14945 15.0209 7.71885L12.2207 9.75329C11.8702 10.0079 11.7236 10.4593 11.8575 10.8713L12.927 14.1631C13.2264 15.0844 12.1719 15.8506 11.3882 15.2812L8.58801 13.2467C8.23753 12.9921 7.76293 12.9921 7.41244 13.2467L4.61227 15.2812C3.82856 15.8506 2.77408 15.0844 3.07343 14.1631L4.143 10.8713C4.27688 10.4593 4.13022 10.0079 3.77973 9.75329L0.979561 7.71885C0.195848 7.14945 0.598623 5.90983 1.56735 5.90983H5.02855C5.46177 5.90983 5.84573 5.63087 5.9796 5.21885L7.04917 1.92705Z" fill="white"/>
<mask id="mask0_95_5893" style="mask-type:alpha" maskUnits="userSpaceOnUse" x="0" y="0" width="8" height="18">
<rect width="8" height="18" fill="#D9D9D9"/>
</mask>
<g mask="url(#mask0_95_5893)">
<path d="M7.04894 1.92705C7.3483 1.00574 8.6517 1.00574 8.95106 1.92705L10.0206 5.21885C10.1545 5.63087 10.5385 5.90983 10.9717 5.90983H14.4329C15.4016 5.90983 15.8044 7.14945 15.0207 7.71885L12.2205 9.75329C11.87 10.0079 11.7234 10.4593 11.8572 10.8713L12.9268 14.1631C13.2261 15.0844 12.1717 15.8506 11.388 15.2812L8.58778 13.2467C8.2373 12.9921 7.7627 12.9921 7.41221 13.2467L4.61204 15.2812C3.82833 15.8506 2.77385 15.0844 3.0732 14.1631L4.14277 10.8713C4.27665 10.4593 4.12999 10.0079 3.7795 9.75329L0.979333 7.71885C0.195619 7.14945 0.598395 5.90983 1.56712 5.90983H5.02832C5.46154 5.90983 5.8455 5.63087 5.97937 5.21885L7.04894 1.92705Z" fill="#FBBA38"/>
<path d="M7.04894 1.92705C7.3483 1.00574 8.6517 1.00574 8.95106 1.92705L10.0206 5.21885C10.1545 5.63087 10.5385 5.90983 10.9717 5.90983H14.4329C15.4016 5.90983 15.8044 7.14945 15.0207 7.71885L12.2205 9.75329C11.87 10.0079 11.7234 10.4593 11.8572 10.8713L12.9268 14.1631C13.2261 15.0844 12.1717 15.8506 11.388 15.2812L8.58778 13.2467C8.2373 12.9921 7.7627 12.9921 7.41221 13.2467L4.61204 15.2812C3.82833 15.8506 2.77385 15.0844 3.0732 14.1631L4.14277 10.8713C4.27665 10.4593 4.12999 10.0079 3.7795 9.75329L0.979333 7.71885C0.195619 7.14945 0.598395 5.90983 1.56712 5.90983H5.02832C5.46154 5.90983 5.8455 5.63087 5.97937 5.21885L7.04894 1.92705Z" fill="#FBBA38"/>
</g>
</svg>
